<svg width="338" height="216" viewBox="0 0 338 216" fill="none" xmlns="http://www.w3.org/2000/svg">
<g opacity="0.5">
<path d="M134.336 105.464C131.704 104.659 129.22 104.565 126.544 104.136C124.087 103.768 121.99 103.529 120.129 103.664L120.081 103.668L120.032 103.668C118.796 103.677 117.659 103.731 116.624 103.789C117.564 104.152 118.584 104.538 119.696 104.908C121.636 105.488 123.778 106.589 125.739 107.428L125.757 107.435L129.061 108.892L129.069 108.896C129.968 109.3 131.447 109.799 132.669 110.57C134.937 111.78 137.319 113.056 139.789 114.372L139.852 114.406L139.913 114.446C142.224 115.979 144.597 117.549 147.024 119.159L147.085 119.199L147.141 119.245C148.288 120.177 149.359 121.077 150.492 121.936C151.637 122.79 152.87 123.738 153.947 124.902C156.034 126.855 158.226 128.888 160.104 131.203C162.163 133.355 163.862 135.834 165.483 137.919L165.508 137.952L165.533 137.987C167.116 140.276 168.657 142.582 170.002 144.858L170.016 144.882C171.25 147.059 172.606 149.271 173.631 151.411C175.369 154.807 176.739 157.879 177.765 160.321C177.775 159.32 177.747 158.197 177.686 156.955C177.48 154.864 177.394 152.728 176.851 150.444L176.838 150.391L176.83 150.339C176.438 147.951 175.756 145.398 174.866 142.677C173.961 140.013 172.776 137.236 171.353 134.456C169.758 131.643 168.233 128.854 166.159 126.388L166.15 126.378C165.588 125.697 165.04 124.934 164.558 124.303C164.052 123.64 163.567 123.049 163.03 122.538L163.019 122.527L163.008 122.516L159.331 118.871L159.317 118.857L159.304 118.844C158.208 117.701 156.921 116.739 155.525 115.726L155.512 115.716L155.499 115.708C154.164 114.697 152.806 113.758 151.417 112.768C148.658 111.05 145.765 109.734 142.879 108.278C139.982 107.168 137.105 106.325 134.335 105.465L134.336 105.464Z" stroke="#FBFAFA" stroke-width="3"/>
<path d="M128.705 63.3096L128.947 63.0891C129.197 62.9433 129.438 62.8991 129.593 62.8879C129.936 62.8631 130.194 62.9666 130.231 62.9809C130.317 63.0135 130.38 63.0475 130.407 63.0624C130.464 63.0931 130.508 63.1223 130.525 63.1343L129.523 64.1838L129.438 64.0946L128.705 63.3096ZM128.705 63.3096C128.697 63.3017 128.69 63.2933 128.683 63.2853C128.7 63.2697 128.716 63.253 128.734 63.2378C128.799 63.1832 128.865 63.1377 128.93 63.0986L128.708 63.3064L128.705 63.3096ZM38.4815 5.10617C38.7682 6.24829 39.2296 7.62742 39.9838 9.15613C41.1477 11.4939 43.0697 14.1572 45.754 16.662L45.7602 16.6688L45.7666 16.6747C48.2808 19.0778 51.3971 21.4145 54.9517 23.6491L55.6679 24.0941C63.4025 28.85 72.9312 33.2276 83.1281 37.4351L83.137 37.4397L83.1452 37.443C93.2304 41.7531 104.231 45.9679 114.103 51.0729L114.105 51.0735C119.023 53.6223 123.732 56.5423 127.391 59.8797C128.371 60.7498 129.135 61.557 129.8 62.2859L130.534 63.0699L130.609 63.15L130.617 63.1605C130.646 63.1906 130.7 63.2463 130.717 63.2639C130.738 63.2859 130.77 63.3198 130.803 63.3565C130.819 63.3742 130.846 63.4062 130.876 63.4453C130.883 63.4541 130.954 63.5418 131.024 63.672L131.097 63.7639L132.283 65.2175C133.874 67.1465 135.379 69.1996 136.785 70.9792L136.8 70.9977L136.814 71.0169C139.625 74.8185 142.265 78.4438 144.72 82.0168C147.196 85.6152 149.313 89.2221 151.135 92.7218C153.009 96.2092 154.532 99.6017 155.819 102.713C157.207 105.862 158.165 108.782 159.005 111.144L159.02 111.184C159.791 113.568 160.444 115.574 160.839 116.97C161.032 117.642 161.18 118.16 161.281 118.513C161.422 118.281 161.601 117.975 161.807 117.597L162.048 117.143C162.72 115.824 163.645 113.872 164.411 111.281L164.417 111.261L164.423 111.24L164.58 110.746C165.352 108.237 165.964 105.131 166.362 101.463C166.716 97.5877 166.692 93.1294 165.973 88.2954L165.975 88.2947C164.534 78.7011 160.314 67.3139 152.031 58.2708L152.024 58.2628C149.98 56.0012 147.729 53.8784 145.318 51.9187L145.317 51.9194L143.45 50.4315L143.448 50.4322L142.981 50.0609L142.955 50.0402L142.93 50.0178C142.82 49.9221 142.751 49.8641 142.708 49.829C142.687 49.8121 142.674 49.8025 142.666 49.7969C142.663 49.7943 142.661 49.7919 142.66 49.791C142.659 49.7902 142.657 49.7903 142.657 49.7902C142.656 49.7897 142.654 49.7873 142.646 49.782C142.639 49.7771 142.614 49.7603 142.59 49.7438C142.543 49.7111 142.494 49.6736 142.436 49.6289L142.435 49.6305L141.569 48.9999L141.561 48.9947C140.07 47.8946 138.591 46.9049 137.217 46.1008L137.206 46.0936C132.174 43.0878 127.091 40.8341 122.018 38.8414L119.844 38.0017C108.274 33.7104 96.8502 30.9142 86.2026 28.259L86.1923 28.2561C75.6369 25.5486 65.7482 23.0952 57.7967 19.9091L57.7979 19.9084C49.774 16.8175 43.829 12.6967 40.723 8.70522C39.7139 7.41075 38.9951 6.17509 38.4815 5.10617Z" stroke="#FBFAFA" stroke-width="3"/>
<path d="M233.123 111.141C230.088 110.135 227.066 109.2 224.101 108.528C221.015 107.989 218.061 107.45 215.175 107.201C212.245 107.044 209.372 106.99 206.574 106.976C200.938 107.282 195.768 107.611 191.176 108.664L191.149 108.671L191.122 108.675C188.782 109.123 186.554 109.633 184.421 110.119C182.313 110.76 180.389 111.336 178.604 111.988L178.588 111.994C176.758 112.641 175.058 113.249 173.47 113.812C171.955 114.439 170.687 115.099 169.337 115.717L169.336 115.718C166.828 116.937 164.903 117.981 163.611 118.717C163.072 119.024 162.645 119.278 162.329 119.468C162.701 119.544 163.217 119.647 163.865 119.767C165.325 120.036 167.455 120.392 170.118 120.734L170.119 120.734C172.828 121.032 176.074 121.477 179.694 121.981L179.704 121.982L179.715 121.984L180.389 122.081C181.964 122.293 183.566 122.416 185.404 122.629L185.457 122.635C187.463 122.939 189.523 123.255 191.653 123.504L191.669 123.506L193.275 123.699C194.91 123.888 196.66 124.091 198.403 124.453C200.651 124.782 202.975 125.125 205.364 125.479L205.407 125.485L205.449 125.494C207.786 125.978 210.161 126.433 212.58 126.787L212.618 126.793L212.655 126.801L216.321 127.544C217.535 127.787 218.751 128.017 219.992 128.211C221.311 128.407 222.605 128.695 223.844 128.967C224.947 129.208 226.013 129.439 227.094 129.608L227.624 129.685L227.69 129.7L235.414 131.491L235.464 131.503L235.512 131.516C240.598 133.065 245.926 134.894 250.79 137.729C255.759 140.366 260.251 143.769 264.47 147.308L264.485 147.322L264.499 147.335C268.647 151.01 272.5 154.987 275.953 159.165L275.962 159.175L275.97 159.187C282.69 167.635 287.934 176.653 291.556 184.86C295.275 193.049 297.373 200.342 298.819 205.396L298.821 205.405L298.824 205.415C299.301 207.17 299.669 208.676 299.949 209.899C299.921 208.64 299.864 207.084 299.748 205.266L299.748 205.259C299.435 199.939 298.466 192.319 296.205 183.279L296.203 183.272C295.101 178.765 293.598 173.92 291.669 168.873L291.665 168.862L291.66 168.851C289.834 163.825 287.201 158.752 284.241 153.489C281.16 148.352 277.606 143.207 273.34 138.477L273.341 138.476C268.986 133.76 264.243 129.19 258.901 125.412L258.879 125.397L258.856 125.38C253.635 121.395 247.898 118.09 242.039 114.97C238.954 113.609 236.101 112.193 233.122 111.142L233.123 111.141Z" stroke="#FBFAFA" stroke-width="3"/>
</g>
</svg>
