<svg width="203" height="203" viewBox="0 0 203 203" fill="none" xmlns="http://www.w3.org/2000/svg">
<g opacity="0.5">
<path d="M201.5 193.43C194.65 203.94 185.79 203.94 178.77 193.43C156.2 158.91 134.7 218.26 118.77 193.83C94.47 157.19 76.99 220.72 58.77 193.43C35.01 157.08 20.2 217.28 1.5 197.34" stroke="#FBFAFA" stroke-width="3" stroke-linecap="round"/>
<path d="M185.78 151.5L200.75 107.96C203.46 100.07 198.47 91.4999 191.17 91.4999L12.9199 91.4999C-18.0201 91.4999 21.5599 151.5 41.5299 151.5M41.4999 91.4999L69.4899 56.51C73.237 51.8267 77.9894 48.0461 83.3952 45.4479C88.8011 42.8497 94.7221 41.5004 100.72 41.5H141.5C146.804 41.5 151.891 43.6071 155.642 47.3578C159.393 51.1086 161.5 56.1956 161.5 61.5V91.4999M121.5 41.5V11.5C121.5 8.84783 122.553 6.30429 124.429 4.42893C126.304 2.55357 128.848 1.5 131.5 1.5L141.5 1.5" stroke="#FBFAFA" stroke-width="3" stroke-linecap="round" stroke-linejoin="round"/>
</g>
</svg>
