<svg width="289" height="271" viewBox="0 0 289 271" fill="none" xmlns="http://www.w3.org/2000/svg">
<g opacity="0.5">
<path d="M73.213 149.098L57.2137 175.058C54.9773 178.686 56.1967 183.498 59.9425 185.806L150.149 241.402L187.928 180.103L90.9436 120.33L81.8635 135.062" stroke="#FBFAFA" stroke-width="3" stroke-linecap="round" stroke-linejoin="round"/>
<path d="M161.442 223.078L200.711 263.952L231.666 213.725L178.104 196.043M43.398 87.8108L22.2559 112.752L42.2257 121.161L86.0362 160.658C85.3531 161.607 84.7677 162.636 84.28 163.745C82.7796 167.12 82.3836 170.882 83.1487 174.496C83.9138 178.109 85.8008 181.388 88.5403 183.865C91.2798 186.342 94.7318 187.89 98.4035 188.288C102.075 188.686 105.779 187.914 108.986 186.083C112.193 184.251 114.739 181.453 116.261 178.088C117.783 174.723 118.203 170.963 117.461 167.345C116.719 163.727 114.854 160.436 112.13 157.941C109.406 155.447 105.964 153.877 102.295 153.455L53.1027 109.099L43.398 87.8108ZM175.744 102.789C172.685 107.56 170.608 112.892 169.632 118.475C168.656 124.057 168.802 129.778 170.06 135.304C171.319 140.83 173.665 146.05 176.962 150.659C180.259 155.269 184.441 159.175 189.264 162.152C194.087 165.128 199.454 167.114 205.052 167.994C210.651 168.874 216.368 168.631 221.872 167.278C227.375 165.925 232.554 163.49 237.107 160.115C241.659 156.739 245.494 152.491 248.387 147.618L248.413 147.576C251.471 142.804 253.547 137.471 254.522 131.888C255.496 126.305 255.349 120.584 254.09 115.059C252.83 109.533 250.483 104.314 247.185 99.7053C243.887 95.0966 239.704 91.1907 234.88 88.2155C230.057 85.2403 224.689 83.2553 219.091 82.3763C213.492 81.4974 207.774 81.7421 202.271 83.0961C196.768 84.4502 191.59 86.8865 187.038 90.2629C182.486 93.6393 178.652 97.8883 175.76 102.762L175.744 102.789Z" stroke="#FBFAFA" stroke-width="3" stroke-linecap="round" stroke-linejoin="round"/>
<path d="M199.614 128.139C198.831 124.834 199.393 121.354 201.177 118.463L201.192 118.45C202.055 116.98 203.204 115.696 204.57 114.676C205.937 113.655 207.493 112.917 209.149 112.506C210.804 112.095 212.525 112.019 214.21 112.282C215.895 112.545 217.51 113.142 218.962 114.038C220.413 114.934 221.671 116.111 222.661 117.499C223.651 118.888 224.354 120.46 224.729 122.124C225.103 123.788 225.141 125.51 224.841 127.189C224.541 128.868 223.908 130.47 222.981 131.901L222.974 131.912C221.191 134.802 218.332 136.866 215.027 137.649C211.722 138.432 208.241 137.87 205.351 136.086C202.46 134.303 200.397 131.444 199.614 128.139Z" stroke="#FBFAFA" stroke-width="3" stroke-linecap="round" stroke-linejoin="round"/>
<path d="M82.8141 64.9666C83.7883 59.3837 85.8644 54.0506 88.9214 49.2785C91.8118 44.4038 95.6441 40.1534 100.194 36.7753C104.745 33.3972 109.922 30.959 115.425 29.6029C120.928 28.2468 126.645 28 132.244 28.8769C137.843 29.7538 143.212 31.7368 148.036 34.7103C152.861 37.6837 157.045 41.5881 160.345 46.1957C163.645 50.8032 165.994 56.0217 167.256 61.5468C168.517 67.0718 168.666 72.7928 167.694 78.376C166.721 83.9592 164.646 89.2928 161.591 94.0658L161.578 94.0871C158.686 98.961 154.852 103.21 150.301 106.587C145.75 109.964 140.571 112.4 135.068 113.755C129.565 115.109 123.848 115.354 118.249 114.476C112.65 113.597 107.282 111.613 102.459 108.638C97.6349 105.663 93.4519 101.757 90.1535 97.149C86.8551 92.5405 84.5074 87.3213 83.2473 81.7959C81.9872 76.2705 81.8399 70.5495 82.8141 64.9666Z" stroke="#FBFAFA" stroke-width="3" stroke-linecap="round" stroke-linejoin="round"/>
<path d="M112.613 69.6365C112.88 67.9761 113.472 66.3847 114.354 64.953C115.237 63.5213 116.392 62.2775 117.755 61.2924C119.118 60.3074 120.662 59.6005 122.298 59.2121C123.935 58.8236 125.631 58.7613 127.292 59.0286C128.952 59.296 130.544 59.8877 131.975 60.77C133.407 61.6524 134.651 62.8081 135.636 64.1712C136.621 65.5343 137.328 67.078 137.716 68.7143C138.105 70.3505 138.167 72.0473 137.9 73.7077C137.632 75.368 137.041 76.9595 136.158 78.3911C135.276 79.8228 134.12 81.0667 132.757 82.0517C131.394 83.0367 129.85 83.7436 128.214 84.1321C126.578 84.5205 124.881 84.5828 123.221 84.3155C121.56 84.0482 119.969 83.4564 118.537 82.5741C117.105 81.6917 115.862 80.536 114.877 79.1729C113.892 77.8099 113.185 76.2661 112.796 74.6299C112.408 72.9936 112.345 71.2968 112.613 69.6365Z" stroke="#FBFAFA" stroke-width="3" stroke-linecap="round" stroke-linejoin="round"/>
</g>
</svg>
