<svg width="303" height="304" viewBox="0 0 303 304" fill="none" xmlns="http://www.w3.org/2000/svg">
<g opacity="0.5">
<path d="M92.5583 141.751L99.3647 114.418C100.259 110.814 102.33 107.611 105.25 105.317C108.171 103.023 111.773 101.769 115.486 101.753H128.832M158.032 201.753V197.349C158.096 187.609 161.266 178.143 167.081 170.33C172.897 162.516 181.055 156.763 190.367 153.907C199.679 151.051 209.659 151.242 218.856 154.452C228.052 157.661 235.984 163.722 241.497 171.752L244.032 175.756M69.7505 141.751H131.354L124.815 201.767H76.3032L69.7505 141.751ZM173.634 102.821C173.549 106.813 174.263 110.782 175.733 114.495C177.202 118.208 179.398 121.59 182.192 124.443C184.985 127.296 188.32 129.563 192.001 131.11C195.682 132.658 199.635 133.455 203.628 133.455C207.621 133.455 211.574 132.658 215.255 131.11C218.936 129.563 222.271 127.296 225.065 124.443C227.858 121.59 230.054 118.208 231.524 114.495C232.993 110.782 233.707 106.813 233.623 102.821C233.457 94.9753 230.224 87.5069 224.617 82.0168C219.01 76.5268 211.475 73.4521 203.628 73.4521C195.781 73.4521 188.246 76.5268 182.639 82.0168C177.032 87.5069 173.799 94.9753 173.634 102.821Z" stroke="#FBFAFA" stroke-width="3" stroke-linecap="round" stroke-linejoin="round"/>
<path d="M28.1514 171.766H14.8324C11.2952 171.762 7.90408 170.355 5.40415 167.852C2.90423 165.35 1.5 161.957 1.5 158.42V14.8325C1.50354 11.2952 2.91116 7.90412 5.41359 5.40418C7.91601 2.90424 11.3085 1.5 14.8457 1.5H268.174C271.714 1.5 275.108 2.90607 277.611 5.4089C280.114 7.91172 281.52 11.3063 281.52 14.8458V88.4346M129.886 240.43L72.8196 272.967C70.2826 274.439 68.2159 276.601 66.8601 279.202C65.5042 281.802 64.9151 284.735 65.1612 287.657C65.4073 290.58 66.4786 293.372 68.2502 295.71C70.0219 298.047 72.4211 299.833 75.1684 300.86C78.8785 302.194 82.9623 302.034 86.5523 300.433L142.431 276.023" stroke="#FBFAFA" stroke-width="3" stroke-linecap="round" stroke-linejoin="round"/>
<path d="M151.494 201.767H58.1541M124.829 224.428C124.829 226.768 125.23 229.037 126.03 231.234L151.494 301.767H255.898L300.432 169.497C301.126 167.415 301.482 165.279 301.5 163.091C301.319 157.283 298.849 151.782 294.629 147.787C290.409 143.792 284.782 141.627 278.972 141.764C274.071 141.668 269.237 142.923 265.002 145.393C260.767 147.862 257.294 151.45 254.963 155.764L229.767 201.767H147.891C141.945 202.084 136.32 204.562 132.073 208.735C127.826 212.908 125.25 218.489 124.829 224.428Z" stroke="#FBFAFA" stroke-width="3" stroke-linecap="round" stroke-linejoin="round"/>
</g>
</svg>
