<svg width="20" height="20" viewBox="0 0 20 20" fill="none" xmlns="http://www.w3.org/2000/svg">
<path d="M9.97903 1.24744C13.7212 1.24744 16.2159 3.7422 16.2159 7.48434C16.2159 11.2265 12.4738 14.9686 9.97903 18.7108C7.48427 14.9686 3.74213 11.2265 3.74213 7.48434C3.74213 3.7422 6.23689 1.24744 9.97903 1.24744ZM9.97903 4.36589C9.15196 4.36589 8.35877 4.69444 7.77395 5.27926C7.18913 5.86408 6.86058 6.65727 6.86058 7.48434C6.86058 8.3114 7.18913 9.10459 7.77395 9.68941C8.35877 10.2742 9.15196 10.6028 9.97903 10.6028C10.8061 10.6028 11.5993 10.2742 12.1841 9.68941C12.7689 9.10459 13.0975 8.3114 13.0975 7.48434C13.0975 6.65727 12.7689 5.86408 12.1841 5.27926C11.5993 4.69444 10.8061 4.36589 9.97903 4.36589Z" fill="#224E9F"/>
</svg>
