<svg width="109" height="97" viewBox="0 0 109 97" fill="none" xmlns="http://www.w3.org/2000/svg">
<path d="M64.6239 57.7427V59.9888H44.4579V57.7427H64.6239ZM49.3895 42.1665V45.9507H59.619V42.1665H62.329V53.812H46.6796V42.1665H49.3895ZM49.3895 51.688H59.619V48.0747H49.3895V51.688ZM86.2304 57.938V60.1841H66.0643V57.938H74.7557V54.3491H68.4569V47.1226H81.1522V44.3882H68.4081V42.1909H83.8378V49.271H71.1669V52.1274H84.3505V54.3491H77.4413V57.938H86.2304ZM98.9501 42.8501C98.9257 49.5151 96.9725 55.228 89.0624 59.3052L87.5731 57.23C91.2352 55.3379 93.518 53.1406 94.8241 50.5161L88.0614 51.1509L87.6708 48.8315L95.6786 48.3433C95.9716 47.3057 96.1547 46.207 96.2401 45.0474H88.8182V42.8501H98.9501ZM106.152 40.6772V62.7476H103.442V51.5171H98.9013V49.2954H103.442V40.6772H106.152ZM9.59461 75.9751C9.5702 80.0278 11.6942 84.0806 15.2831 85.6187L13.6718 87.7915C11.1327 86.6196 9.26502 84.2759 8.25184 81.395C7.23866 84.5078 5.34657 87.0469 2.66102 88.3042L1.00086 86.0337C4.68739 84.4468 6.83582 80.2231 6.83582 75.9751V72.4595H9.59461V75.9751ZM19.6044 70.6772V92.772H16.87V70.6772H19.6044ZM26.4891 72.8745V85.0083C28.6498 84.9839 30.6395 84.8252 32.8856 84.3491L33.2763 86.644C30.4686 87.2544 28.0516 87.3521 25.2684 87.3521H23.7792V72.8745H26.4891ZM41.8944 70.6772V92.7476H39.3065V70.6772H41.8944ZM37.1581 71.1411V91.6978H34.5946V80.0034H29.9804V77.8062H34.5946V71.1411H37.1581ZM55.6884 72.8257V87.2788H45.2391V72.8257H55.6884ZM47.9003 74.9497V85.106H52.9784V74.9497H47.9003ZM61.743 70.6772V79.1489H65.1366V81.4438H61.743V92.7476H59.0331V70.6772H61.743ZM86.2059 83.8364V86.0581H77.4413V92.7476H74.7557V86.0581H66.0399V83.8364H86.2059ZM84.0331 79.8569V82.0054H68.6278V71.6294H83.7889V73.7778H71.3134V75.731H83.3007V77.8306H71.3134V79.8569H84.0331ZM93.7011 72.2886C96.6918 72.2886 98.9013 74.7788 99.2919 78.8071H103.491V70.6772H106.177V92.772H103.491V81.0044H99.3163C99.0233 85.2646 96.7772 87.8892 93.7011 87.8892C90.3807 87.8892 88.037 84.8862 88.037 80.0767C88.037 75.3159 90.3807 72.2886 93.7011 72.2886ZM93.7011 74.73C91.87 74.73 90.6249 76.7075 90.6493 80.0767C90.6249 83.4702 91.87 85.4478 93.7011 85.4478C95.5321 85.4478 96.7528 83.4702 96.7772 80.0767C96.7528 76.7075 95.5321 74.73 93.7011 74.73Z" fill="#224E9F"/>
<path d="M2.13304 0.0178296L108.587 26.5981L107.116 31.4263L0.662053 4.84601L2.13304 0.0178296Z" fill="#E4E8F1"/>
<path d="M63.075 15.2313L69.0485 16.7226L71.3434 22.4963L65.5074 21.0413L63.075 15.2313Z" fill="#224E9F"/>
<path d="M51.5939 12.3755L57.3843 13.8039L59.7707 19.6047L53.9653 18.1586L51.5939 12.3755Z" fill="#224E9F"/>
<path d="M94.8248 28.3616L88.4769 26.7792L86.0446 20.9692L92.4458 22.5783L94.8248 28.3616Z" fill="#224E9F"/>
<path d="M74.8311 18.1685L80.2926 19.55L82.6715 25.342L77.21 23.9605L74.8311 18.1685Z" fill="#224E9F"/>
<path d="M40.388 9.56615L45.8421 10.9301L48.1369 16.7038L42.6447 15.3307L40.388 9.56615Z" fill="#224E9F"/>
<path d="M29.8769 6.95565L34.8347 8.17493L37.2135 13.9757L31.9733 12.6662L29.8769 6.95565Z" fill="#224E9F"/>
<path d="M19.2438 4.29186L24.6978 5.6558L26.7788 11.375L20.9963 9.92918L19.2438 4.29186Z" fill="#224E9F"/>
<path d="M4.41266 5.78247L0.662033 4.84585L2.13303 0.0176709L4.41266 5.78247Z" fill="#224E9F"/>
<path d="M98.4062 24.1756L108.586 26.688L107.108 31.5541L100.726 29.965L98.4062 24.1756Z" fill="#224E9F"/>
<path d="M8.09125 1.50908L13.2627 2.80035L15.5576 8.5653L10.4702 7.30106L8.09125 1.50908Z" fill="#224E9F"/>
<path d="M0.00124442 30.389L108.471 31.4393L108.518 26.5361L0.0487221 25.4858" fill="#224E9F"/>
<path d="M102.813 31.3843L108.31 31.4376C108.471 31.4391 108.47 31.4916 108.459 31.1156L108.503 26.5358" fill="#224E9F"/>
</svg>
