<svg width="109" height="97" viewBox="0 0 109 97" fill="none" xmlns="http://www.w3.org/2000/svg">
<path d="M13.3301 42.8257V45.0474H11.2061V54.9839C12.207 54.8984 13.1958 54.813 14.1357 54.6909L14.2578 56.644C9.69238 57.4253 4.58984 57.5229 0.756836 57.5229L0.439453 55.3013L3.10059 55.2769V45.0474H1.00098V42.8257H13.3301ZM18.0176 40.6772V49.2222H21.4111V51.4438H18.0176V62.7476H15.3076V40.6772H18.0176ZM5.7373 55.228C6.67725 55.2158 7.62939 55.1792 8.59375 55.1304V45.0474H5.7373L5.7373 55.228ZM40.7227 40.7017V56.8882H37.9883V40.7017H40.7227ZM41.333 60.1108V62.3081H26.123V55.4233H28.8574V60.1108H41.333ZM30.7129 45.8286C30.7129 48.4409 32.6172 50.9312 36.1328 51.9321L34.8389 54.0806C32.2632 53.3237 30.4199 51.7612 29.4189 49.7593C28.418 51.9321 26.5503 53.6411 23.9258 54.4468L22.6074 52.3228C26.1475 51.2485 28.0029 48.6118 28.0029 45.8286V45.5356H23.291V43.3872H28.0029V40.7993H30.7373V43.3872H35.4248V45.5356H30.7129V45.8286ZM61.8896 42.6304V44.6323C61.8652 47.3179 61.9141 50.394 60.9131 55.0571L58.252 54.7886C58.6304 53.0186 58.8623 51.4438 59.0088 50.0278L45.9961 50.7603L45.6055 48.4409L59.1553 47.9526C59.2041 46.8052 59.2163 45.7798 59.2285 44.8276H46.2891V42.6304H61.8896ZM64.0625 57.7915V60.0376H43.9453V57.7915H51.3672V52.3472H54.0527V57.7915H64.0625ZM9.08203 75.9751C9.05762 80.0278 11.1816 84.0806 14.7705 85.6187L13.1592 87.7915C10.6201 86.6196 8.75244 84.2759 7.73926 81.395C6.72607 84.5078 4.83398 87.0469 2.14844 88.3042L0.488281 86.0337C4.1748 84.4468 6.32324 80.2231 6.32324 75.9751V72.4595H9.08203V75.9751ZM19.0918 70.6772V92.772H16.3574V70.6772H19.0918ZM25.9766 72.8745V85.0083C28.1372 84.9839 30.127 84.8252 32.373 84.3491L32.7637 86.644C29.9561 87.2544 27.5391 87.3521 24.7559 87.3521H23.2666V72.8745H25.9766ZM41.3818 70.6772V92.7476H38.7939V70.6772H41.3818ZM36.6455 71.1411V91.6978H34.082V80.0034H29.4678V77.8062H34.082V71.1411H36.6455ZM55.1758 72.8257V87.2788H44.7266V72.8257H55.1758ZM47.3877 74.9497V85.106H52.4658V74.9497H47.3877ZM61.2305 70.6772V79.1489H64.624V81.4438H61.2305V92.7476H58.5205V70.6772H61.2305ZM85.6934 83.8364V86.0581H76.9287V92.7476H74.2432V86.0581H65.5273V83.8364H85.6934ZM83.5205 79.8569V82.0054H68.1152V71.6294H83.2764V73.7778H70.8008V75.731H82.7881V77.8306H70.8008V79.8569H83.5205ZM93.1885 72.2886C96.1792 72.2886 98.3887 74.7788 98.7793 78.8071H102.979V70.6772H105.664V92.772H102.979V81.0044H98.8037C98.5107 85.2646 96.2646 87.8892 93.1885 87.8892C89.8682 87.8892 87.5244 84.8862 87.5244 80.0767C87.5244 75.3159 89.8682 72.2886 93.1885 72.2886ZM93.1885 74.73C91.3574 74.73 90.1123 76.7075 90.1367 80.0767C90.1123 83.4702 91.3574 85.4478 93.1885 85.4478C95.0195 85.4478 96.2402 83.4702 96.2646 80.0767C96.2402 76.7075 95.0195 74.73 93.1885 74.73Z" fill="#224E9F"/>
<path d="M106.701 0.0178296L0.247375 26.5981L1.71837 31.4263L108.172 4.84601L106.701 0.0178296Z" fill="#E4E8F1"/>
<path d="M45.759 15.2313L39.7855 16.7226L37.4906 22.4963L43.3267 21.0413L45.759 15.2313Z" fill="#224E9F"/>
<path d="M57.2402 12.3755L51.4498 13.8039L49.0633 19.6047L54.8688 18.1586L57.2402 12.3755Z" fill="#224E9F"/>
<path d="M14.0092 28.3616L20.357 26.7792L22.7894 20.9692L16.3882 22.5783L14.0092 28.3616Z" fill="#224E9F"/>
<path d="M34.003 18.1685L28.5415 19.55L26.1626 25.342L31.6241 23.9605L34.003 18.1685Z" fill="#224E9F"/>
<path d="M68.4461 9.56615L62.9921 10.9301L60.6972 16.7038L66.1894 15.3307L68.4461 9.56615Z" fill="#224E9F"/>
<path d="M78.9571 6.95565L73.9994 8.17493L71.6206 13.9757L76.8608 12.6662L78.9571 6.95565Z" fill="#224E9F"/>
<path d="M89.5902 4.29161L84.1362 5.65555L82.0552 11.3747L87.8377 9.92894L89.5902 4.29161Z" fill="#224E9F"/>
<path d="M104.421 5.78272L108.172 4.84609L106.701 0.017915L104.421 5.78272Z" fill="#224E9F"/>
<path d="M10.4277 24.1756L0.248225 26.688L1.72557 31.5541L8.10778 29.965L10.4277 24.1756Z" fill="#224E9F"/>
<path d="M100.743 1.50908L95.5713 2.80035L93.2764 8.5653L98.3638 7.30106L100.743 1.50908Z" fill="#224E9F"/>
<path d="M108.833 30.389L0.363182 31.4393L0.315704 26.5361L108.785 25.4858" fill="#224E9F"/>
<path d="M6.02136 31.3843L0.523998 31.4376C0.363212 31.4391 0.36372 31.4916 0.375394 31.1156L0.331047 26.5358" fill="#224E9F"/>
</svg>
