<svg width="269" height="269" viewBox="0 0 269 269" fill="none" xmlns="http://www.w3.org/2000/svg">
<g opacity="0.5" clip-path="url(#clip0_206_80)">
<path d="M134.237 82.1129C132.798 82.1129 131.628 60.5692 131.628 60.5692C131.628 59.143 132.798 57.9863 134.237 57.9863C135.676 57.9863 136.846 59.143 136.846 60.5692C136.846 60.5692 135.676 82.1129 134.237 82.1129Z" fill="url(#paint0_radial_206_80)"/>
<path d="M107.771 89.132C106.522 89.8418 94.6331 71.7683 94.6331 71.7683C93.9101 70.5327 94.3373 68.9554 95.586 68.2456C96.8348 67.5358 98.4252 67.9564 99.1482 69.192C99.1482 69.192 109.02 88.4223 107.771 89.1386V89.132Z" fill="url(#paint1_radial_206_80)"/>
<path d="M88.396 108.303C87.6731 109.539 68.2391 99.766 68.2391 99.766C66.9904 99.0562 66.5632 97.4789 67.2862 96.2433C68.0091 95.0077 69.5996 94.5871 70.8483 95.2969C70.8483 95.2969 89.1124 107.068 88.396 108.303Z" fill="url(#paint2_radial_206_80)"/>
<path d="M81.3046 134.5C81.3046 135.926 59.5375 137.083 59.5375 137.083C58.0982 137.083 56.9284 135.926 56.9284 134.5C56.9284 133.074 58.0982 131.917 59.5375 131.917C59.5375 131.917 81.3046 133.074 81.3046 134.5Z" fill="url(#paint3_radial_206_80)"/>
<path d="M88.3961 160.69C89.119 161.926 70.8483 173.696 70.8483 173.696C69.5996 174.406 68.0091 173.986 67.2862 172.75C66.5632 171.514 66.9904 169.937 68.2391 169.227C68.2391 169.227 87.6731 159.454 88.3961 160.69Z" fill="url(#paint4_radial_206_80)"/>
<path d="M107.771 179.868C109.02 180.577 99.1482 199.814 99.1482 199.814C98.4252 201.05 96.8348 201.47 95.586 200.761C94.3373 200.051 93.9101 198.474 94.6331 197.238C94.6331 197.238 106.529 179.158 107.771 179.874V179.868Z" fill="url(#paint5_radial_206_80)"/>
<path d="M134.237 186.887C135.676 186.887 136.846 208.431 136.846 208.431C136.846 209.857 135.676 211.014 134.237 211.014C132.798 211.014 131.628 209.857 131.628 208.431C131.628 208.431 132.798 186.887 134.237 186.887Z" fill="url(#paint6_radial_206_80)"/>
<path d="M160.703 179.868C161.952 179.158 173.841 197.232 173.841 197.232C174.564 198.467 174.137 200.045 172.888 200.754C171.639 201.464 170.049 201.044 169.326 199.808C169.326 199.808 159.455 180.578 160.703 179.861V179.868Z" fill="url(#paint7_radial_206_80)"/>
<path d="M180.078 160.69C180.801 159.454 200.235 169.227 200.235 169.227C201.484 169.937 201.911 171.514 201.188 172.75C200.465 173.986 198.875 174.406 197.626 173.696C197.626 173.696 179.362 161.926 180.078 160.69Z" fill="url(#paint8_radial_206_80)"/>
<path d="M187.17 134.5C187.17 133.074 208.937 131.917 208.937 131.917C210.376 131.917 211.546 133.074 211.546 134.5C211.546 135.926 210.376 137.083 208.937 137.083C208.937 137.083 187.17 135.926 187.17 134.5Z" fill="url(#paint9_radial_206_80)"/>
<path d="M180.078 108.303C179.355 107.068 197.626 95.2969 197.626 95.2969C198.875 94.5871 200.465 95.0077 201.188 96.2433C201.911 97.4789 201.484 99.0562 200.235 99.766C200.235 99.766 180.801 109.539 180.078 108.303Z" fill="url(#paint10_radial_206_80)"/>
<path d="M160.703 89.1323C159.455 88.4225 169.326 69.1857 169.326 69.1857C170.049 67.9501 171.639 67.5295 172.888 68.2393C174.137 68.9491 174.564 70.5264 173.841 71.762C173.841 71.762 161.946 89.8421 160.703 89.1257V89.1323Z" fill="url(#paint11_radial_206_80)"/>
<path d="M136.846 49.7384C136.846 51.02 135.795 52.0584 134.5 52.0584C133.205 52.0584 132.154 51.02 132.154 49.7384C132.154 48.4569 133.205 47.4185 134.5 47.4185C135.795 47.4185 136.846 48.4569 136.846 49.7384Z" fill="url(#paint12_radial_206_80)"/>
<path d="M61.3712 89.8812C62.495 90.5187 62.8762 91.9383 62.2321 93.049C61.5881 94.1597 60.1487 94.5409 59.0315 93.8968C57.9076 93.2593 57.5264 91.8397 58.1705 90.729C58.8146 89.6183 60.2539 89.2371 61.3712 89.8812Z" fill="url(#paint13_radial_206_80)"/>
<path d="M58.762 174.643C59.8859 174.005 61.3186 174.38 61.9627 175.491C62.6067 176.601 62.2256 178.021 61.1017 178.659C59.9779 179.296 58.5451 178.921 57.9011 177.811C57.257 176.7 57.6382 175.28 58.762 174.643Z" fill="url(#paint14_radial_206_80)"/>
<path d="M131.628 219.261C131.628 217.98 132.68 216.941 133.974 216.941C135.269 216.941 136.321 217.98 136.321 219.261C136.321 220.543 135.269 221.581 133.974 221.581C132.68 221.581 131.628 220.543 131.628 219.261Z" fill="url(#paint15_radial_206_80)"/>
<path d="M207.103 179.112C205.979 178.475 205.598 177.055 206.242 175.944C206.886 174.834 208.325 174.452 209.443 175.097C210.567 175.734 210.948 177.154 210.304 178.264C209.653 179.375 208.22 179.756 207.103 179.112Z" fill="url(#paint16_radial_206_80)"/>
<path d="M209.712 94.3504C208.588 94.9879 207.156 94.6133 206.512 93.5026C205.867 92.3919 206.249 90.9723 207.373 90.3348C208.496 89.6973 209.929 90.0719 210.573 91.1826C211.217 92.2933 210.836 93.7129 209.712 94.3504Z" fill="url(#paint17_radial_206_80)"/>
<path d="M219.879 137.077C218.585 137.077 217.533 136.038 217.533 134.757C217.533 133.475 218.585 132.437 219.879 132.437C221.174 132.437 222.226 133.475 222.226 134.757C222.226 136.038 221.174 137.077 219.879 137.077Z" fill="url(#paint18_radial_206_80)"/>
<path d="M179.316 62.3835C178.672 63.4942 177.232 63.8753 176.115 63.2313C174.991 62.5938 174.61 61.1742 175.254 60.0635C175.898 58.9528 177.338 58.5716 178.455 59.2157C179.579 59.8532 179.96 61.2728 179.316 62.3835Z" fill="url(#paint19_radial_206_80)"/>
<path d="M93.6735 59.8071C94.3176 60.9178 93.9364 62.3374 92.8126 62.9749C91.6887 63.6124 90.256 63.2378 89.6119 62.1271C88.9678 61.0164 89.349 59.5968 90.4729 58.9593C91.5967 58.3218 93.0294 58.6964 93.6735 59.8071Z" fill="url(#paint20_radial_206_80)"/>
<path d="M48.5948 131.917C49.8896 131.917 50.9411 132.955 50.9411 134.237C50.9411 135.519 49.8896 136.557 48.5948 136.557C47.3001 136.557 46.2486 135.519 46.2486 134.237C46.2486 132.955 47.3001 131.917 48.5948 131.917Z" fill="url(#paint21_radial_206_80)"/>
<path d="M89.1584 206.617C89.8025 205.506 91.2418 205.125 92.3591 205.769C93.4829 206.406 93.8641 207.826 93.22 208.937C92.576 210.047 91.1367 210.429 90.0194 209.784C88.8955 209.147 88.5143 207.727 89.1584 206.617Z" fill="url(#paint22_radial_206_80)"/>
<path d="M174.801 209.193C174.157 208.082 174.538 206.663 175.662 206.025C176.786 205.388 178.218 205.762 178.862 206.873C179.506 207.984 179.125 209.403 178.001 210.041C176.878 210.678 175.445 210.304 174.801 209.193Z" fill="url(#paint23_radial_206_80)"/>
<path d="M185.349 119.942C184.948 118.575 265.668 94.2715 265.668 94.2715C267.048 93.8772 268.494 94.6658 268.895 96.0328C269.296 97.3999 268.501 98.8326 267.114 99.2269C267.114 99.2269 185.75 121.316 185.349 119.942Z" fill="url(#paint24_radial_206_80)"/>
<path d="M147.191 83.6378C145.791 83.296 164.883 1.95851 164.883 1.95851C165.225 0.578353 166.638 -0.26946 168.038 0.0722938C169.438 0.414048 170.286 1.81393 169.944 3.19409C169.944 3.19409 148.584 83.9795 147.191 83.6378Z" fill="url(#paint25_radial_206_80)"/>
<path d="M96.3418 98.195C95.3429 99.2202 33.7154 42.1933 33.7154 42.1933C32.677 41.2074 32.6441 39.571 33.6431 38.5457C34.6421 37.5204 36.2917 37.4876 37.3301 38.4734C37.3301 38.4734 97.3408 97.1697 96.3418 98.195Z" fill="url(#paint26_radial_206_80)"/>
<path d="M83.6509 149.051C84.0518 150.418 3.3321 174.729 3.3321 174.729C1.95194 175.123 0.506059 174.334 0.105155 172.967C-0.295749 171.6 0.499487 170.167 1.88622 169.773C1.88622 169.773 83.25 147.684 83.6509 149.058V149.051Z" fill="url(#paint27_radial_206_80)"/>
<path d="M121.809 185.362C123.209 185.704 104.117 267.042 104.117 267.042C103.775 268.422 102.362 269.27 100.962 268.928C99.5622 268.586 98.7144 267.186 99.0562 265.806C99.0562 265.806 120.416 185.021 121.809 185.362Z" fill="url(#paint28_radial_206_80)"/>
<path d="M172.658 170.805C173.657 169.779 235.285 226.806 235.285 226.806C236.323 227.792 236.356 229.429 235.357 230.454C234.358 231.479 232.708 231.512 231.67 230.526C231.67 230.526 171.659 171.83 172.658 170.805Z" fill="url(#paint29_radial_206_80)"/>
<path d="M198.783 73.6286C205.92 66.9841 211.69 61.5226 211.69 61.5226C212.716 60.5039 212.716 58.8608 211.69 57.8421C210.665 56.8235 209.002 56.8235 207.971 57.8421C207.971 57.8421 202.45 63.5534 195.733 70.6185C195.654 70.6776 195.575 70.7368 195.497 70.8091C195.497 70.8091 164.745 102.612 165.593 103.46C166.447 104.301 198.585 73.8652 198.585 73.8652C198.658 73.7929 198.717 73.714 198.776 73.6351L198.783 73.6286Z" fill="url(#paint30_radial_206_80)"/>
<path d="M113.252 48.7462C111.004 39.302 109.112 31.6256 109.112 31.6256C108.737 30.2389 107.291 29.4108 105.891 29.7854C104.491 30.16 103.657 31.5862 104.031 32.9729C104.031 32.9729 106.266 40.5573 109.092 49.8503C109.105 49.9489 109.112 50.0475 109.138 50.1395C109.138 50.1395 121.592 92.3987 122.755 92.0898C123.919 91.7809 113.357 49.0157 113.357 49.0157C113.331 48.9171 113.292 48.8317 113.252 48.7396V48.7462Z" fill="url(#paint31_radial_206_80)"/>
<path d="M91.3864 123.137C91.7019 121.98 48.9957 109.657 48.9957 109.657C48.8971 109.631 48.7986 109.624 48.7 109.611C39.3149 106.818 31.6517 104.603 31.6517 104.603C30.2518 104.229 28.8059 105.057 28.4313 106.444C28.0567 107.83 28.8848 109.256 30.2913 109.631C30.2913 109.631 38.0464 111.511 47.5893 113.732C47.6813 113.772 47.7733 113.811 47.8719 113.837C47.8719 113.837 91.0775 124.294 91.393 123.137H91.3864Z" fill="url(#paint32_radial_206_80)"/>
<path d="M69.685 195.365C62.5476 202.009 56.7772 207.471 56.7772 207.471C55.7519 208.49 55.7519 210.133 56.7772 211.151C57.8025 212.17 59.4652 212.17 60.4971 211.151C60.4971 211.151 66.0177 205.44 72.7345 198.375C72.8134 198.316 72.8922 198.257 72.9711 198.184C72.9711 198.184 103.722 166.382 102.875 165.534C102.02 164.692 69.8822 195.128 69.8822 195.128C69.8099 195.201 69.7507 195.279 69.6916 195.358L69.685 195.365Z" fill="url(#paint33_radial_206_80)"/>
<path d="M159.389 219.15C159.376 219.052 159.369 218.953 159.343 218.854C159.343 218.854 146.889 176.595 145.725 176.904C144.562 177.213 155.124 219.978 155.124 219.978C155.15 220.077 155.189 220.169 155.229 220.254C157.476 229.698 159.369 237.375 159.369 237.375C159.744 238.762 161.19 239.59 162.59 239.215C163.989 238.84 164.824 237.414 164.45 236.028C164.45 236.028 162.215 228.443 159.389 219.15Z" fill="url(#paint34_radial_206_80)"/>
<path d="M238.183 159.369C238.183 159.369 230.428 157.489 220.885 155.268C220.793 155.229 220.701 155.189 220.602 155.163C220.602 155.163 177.397 144.707 177.081 145.863C176.766 147.02 219.472 159.343 219.472 159.343C219.571 159.369 219.669 159.376 219.768 159.389C229.153 162.182 236.816 164.397 236.816 164.397C238.216 164.771 239.662 163.943 240.036 162.557C240.411 161.17 239.583 159.744 238.176 159.369H238.183Z" fill="url(#paint35_radial_206_80)"/>
</g>
<defs>
<radialGradient id="paint0_radial_206_80" cx="0" cy="0" r="1" gradientUnits="userSpaceOnUse" gradientTransform="translate(146.43 134.357) scale(34.9756 255.521)">
<stop stop-color="white"/>
<stop offset="1" stop-color="#E4E8F1"/>
</radialGradient>
<radialGradient id="paint1_radial_206_80" cx="0" cy="0" r="1" gradientUnits="userSpaceOnUse" gradientTransform="translate(132.854 135.171) scale(91.1455 225.072)">
<stop stop-color="white"/>
<stop offset="1" stop-color="#E4E8F1"/>
</radialGradient>
<radialGradient id="paint2_radial_206_80" cx="0" cy="0" r="1" gradientUnits="userSpaceOnUse" gradientTransform="translate(127.869 137.556) scale(143.984 142.544)">
<stop stop-color="white"/>
<stop offset="1" stop-color="#E4E8F1"/>
</radialGradient>
<radialGradient id="paint3_radial_206_80" cx="0" cy="0" r="1" gradientUnits="userSpaceOnUse" gradientTransform="translate(126.072 148.269) scale(163.381 54.7098)">
<stop stop-color="white"/>
<stop offset="1" stop-color="#E4E8F1"/>
</radialGradient>
<radialGradient id="paint4_radial_206_80" cx="0" cy="0" r="1" gradientUnits="userSpaceOnUse" gradientTransform="translate(127.87 203.186) scale(143.986 142.544)">
<stop stop-color="white"/>
<stop offset="1" stop-color="#E4E8F1"/>
</radialGradient>
<radialGradient id="paint5_radial_206_80" cx="0" cy="0" r="1" gradientUnits="userSpaceOnUse" gradientTransform="translate(132.854 247.125) scale(91.1455 225.076)">
<stop stop-color="white"/>
<stop offset="1" stop-color="#E4E8F1"/>
</radialGradient>
<radialGradient id="paint6_radial_206_80" cx="0" cy="0" r="1" gradientUnits="userSpaceOnUse" gradientTransform="translate(146.43 263.258) scale(34.9756 255.521)">
<stop stop-color="white"/>
<stop offset="1" stop-color="#E4E8F1"/>
</radialGradient>
<radialGradient id="paint7_radial_206_80" cx="0" cy="0" r="1" gradientUnits="userSpaceOnUse" gradientTransform="translate(199.167 247.118) scale(91.1455 225.072)">
<stop stop-color="white"/>
<stop offset="1" stop-color="#E4E8F1"/>
</radialGradient>
<radialGradient id="paint8_radial_206_80" cx="0" cy="0" r="1" gradientUnits="userSpaceOnUse" gradientTransform="translate(240.992 203.186) scale(143.984 142.544)">
<stop stop-color="white"/>
<stop offset="1" stop-color="#E4E8F1"/>
</radialGradient>
<radialGradient id="paint9_radial_206_80" cx="0" cy="0" r="1" gradientUnits="userSpaceOnUse" gradientTransform="translate(256.313 148.269) scale(163.381 54.7098)">
<stop stop-color="white"/>
<stop offset="1" stop-color="#E4E8F1"/>
</radialGradient>
<radialGradient id="paint10_radial_206_80" cx="0" cy="0" r="1" gradientUnits="userSpaceOnUse" gradientTransform="translate(240.993 137.556) scale(143.986 142.544)">
<stop stop-color="white"/>
<stop offset="1" stop-color="#E4E8F1"/>
</radialGradient>
<radialGradient id="paint11_radial_206_80" cx="0" cy="0" r="1" gradientUnits="userSpaceOnUse" gradientTransform="translate(199.167 135.166) scale(91.1455 225.076)">
<stop stop-color="white"/>
<stop offset="1" stop-color="#E4E8F1"/>
</radialGradient>
<radialGradient id="paint12_radial_206_80" cx="0" cy="0" r="1" gradientUnits="userSpaceOnUse" gradientTransform="translate(145.464 62.1059) scale(31.4516 49.1413)">
<stop stop-color="white"/>
<stop offset="1" stop-color="#E4E8F1"/>
</radialGradient>
<radialGradient id="paint13_radial_206_80" cx="0" cy="0" r="1" gradientUnits="userSpaceOnUse" gradientTransform="translate(71.1532 104.262) scale(31.4164 49.1653)">
<stop stop-color="white"/>
<stop offset="1" stop-color="#E4E8F1"/>
</radialGradient>
<radialGradient id="paint14_radial_206_80" cx="0" cy="0" r="1" gradientUnits="userSpaceOnUse" gradientTransform="translate(70.8837 189.009) scale(31.4164 49.1034)">
<stop stop-color="white"/>
<stop offset="1" stop-color="#E4E8F1"/>
</radialGradient>
<radialGradient id="paint15_radial_206_80" cx="0" cy="0" r="1" gradientUnits="userSpaceOnUse" gradientTransform="translate(144.938 231.629) scale(31.4516 49.1413)">
<stop stop-color="white"/>
<stop offset="1" stop-color="#E4E8F1"/>
</radialGradient>
<radialGradient id="paint16_radial_206_80" cx="0" cy="0" r="1" gradientUnits="userSpaceOnUse" gradientTransform="translate(219.225 189.478) scale(31.4164 49.1652)">
<stop stop-color="white"/>
<stop offset="1" stop-color="#E4E8F1"/>
</radialGradient>
<radialGradient id="paint17_radial_206_80" cx="0" cy="0" r="1" gradientUnits="userSpaceOnUse" gradientTransform="translate(219.494 104.701) scale(31.4164 49.1034)">
<stop stop-color="white"/>
<stop offset="1" stop-color="#E4E8F1"/>
</radialGradient>
<radialGradient id="paint18_radial_206_80" cx="0" cy="0" r="1" gradientUnits="userSpaceOnUse" gradientTransform="translate(230.844 147.124) scale(31.4517 49.1414)">
<stop stop-color="white"/>
<stop offset="1" stop-color="#E4E8F1"/>
</radialGradient>
<radialGradient id="paint19_radial_206_80" cx="0" cy="0" r="1" gradientUnits="userSpaceOnUse" gradientTransform="translate(188.237 73.597) scale(31.4164 49.1653)">
<stop stop-color="white"/>
<stop offset="1" stop-color="#E4E8F1"/>
</radialGradient>
<radialGradient id="paint20_radial_206_80" cx="0" cy="0" r="1" gradientUnits="userSpaceOnUse" gradientTransform="translate(102.595 73.325) scale(31.4164 49.1034)">
<stop stop-color="white"/>
<stop offset="1" stop-color="#E4E8F1"/>
</radialGradient>
<radialGradient id="paint21_radial_206_80" cx="0" cy="0" r="1" gradientUnits="userSpaceOnUse" gradientTransform="translate(59.559 146.604) scale(31.4516 49.1413)">
<stop stop-color="white"/>
<stop offset="1" stop-color="#E4E8F1"/>
</radialGradient>
<radialGradient id="paint22_radial_206_80" cx="0" cy="0" r="1" gradientUnits="userSpaceOnUse" gradientTransform="translate(102.141 220.15) scale(31.4164 49.1654)">
<stop stop-color="white"/>
<stop offset="1" stop-color="#E4E8F1"/>
</radialGradient>
<radialGradient id="paint23_radial_206_80" cx="0" cy="0" r="1" gradientUnits="userSpaceOnUse" gradientTransform="translate(187.783 220.391) scale(31.4164 49.1034)">
<stop stop-color="white"/>
<stop offset="1" stop-color="#E4E8F1"/>
</radialGradient>
<radialGradient id="paint24_radial_206_80" cx="0" cy="0" r="1" gradientUnits="userSpaceOnUse" gradientTransform="translate(422.624 175.946) scale(560.668 273.606)">
<stop stop-color="white"/>
<stop offset="1" stop-color="#E4E8F1"/>
</radialGradient>
<radialGradient id="paint25_radial_206_80" cx="0" cy="0" r="1" gradientUnits="userSpaceOnUse" gradientTransform="translate(212.079 264.759) scale(153.5 885.845)">
<stop stop-color="white"/>
<stop offset="1" stop-color="#E4E8F1"/>
</radialGradient>
<radialGradient id="paint26_radial_206_80" cx="0" cy="0" r="1" gradientUnits="userSpaceOnUse" gradientTransform="translate(212.861 229.116) scale(425.201 640.258)">
<stop stop-color="white"/>
<stop offset="1" stop-color="#E4E8F1"/>
</radialGradient>
<radialGradient id="paint27_radial_206_80" cx="0" cy="0" r="1" gradientUnits="userSpaceOnUse" gradientTransform="translate(237.278 230.772) scale(560.668 273.605)">
<stop stop-color="white"/>
<stop offset="1" stop-color="#E4E8F1"/>
</radialGradient>
<radialGradient id="paint28_radial_206_80" cx="0" cy="0" r="1" gradientUnits="userSpaceOnUse" gradientTransform="translate(163.942 450.124) scale(153.5 885.845)">
<stop stop-color="white"/>
<stop offset="1" stop-color="#E4E8F1"/>
</radialGradient>
<radialGradient id="paint29_radial_206_80" cx="0" cy="0" r="1" gradientUnits="userSpaceOnUse" gradientTransform="translate(352.592 362.152) scale(425.201 640.258)">
<stop stop-color="white"/>
<stop offset="1" stop-color="#E4E8F1"/>
</radialGradient>
<radialGradient id="paint30_radial_206_80" cx="0" cy="0" r="1" gradientUnits="userSpaceOnUse" gradientTransform="translate(298.561 203.95) scale(314.235 491.403)">
<stop stop-color="white"/>
<stop offset="1" stop-color="#E4E8F1"/>
</radialGradient>
<radialGradient id="paint31_radial_206_80" cx="0" cy="0" r="1" gradientUnits="userSpaceOnUse" gradientTransform="translate(157.561 227.206) scale(126.699 660.831)">
<stop stop-color="white"/>
<stop offset="1" stop-color="#E4E8F1"/>
</radialGradient>
<radialGradient id="paint32_radial_206_80" cx="0" cy="0" r="1" gradientUnits="userSpaceOnUse" gradientTransform="translate(207.187 163.748) scale(422.602 198.188)">
<stop stop-color="white"/>
<stop offset="1" stop-color="#E4E8F1"/>
</radialGradient>
<radialGradient id="paint33_radial_206_80" cx="0" cy="0" r="1" gradientUnits="userSpaceOnUse" gradientTransform="translate(188.993 312.388) scale(314.235 491.404)">
<stop stop-color="white"/>
<stop offset="1" stop-color="#E4E8F1"/>
</radialGradient>
<radialGradient id="paint34_radial_206_80" cx="0" cy="0" r="1" gradientUnits="userSpaceOnUse" gradientTransform="translate(199.255 374.433) scale(126.699 660.9)">
<stop stop-color="white"/>
<stop offset="1" stop-color="#E4E8F1"/>
</radialGradient>
<radialGradient id="paint35_radial_206_80" cx="0" cy="0" r="1" gradientUnits="userSpaceOnUse" gradientTransform="translate(355.912 205.009) scale(422.569 198.188)">
<stop stop-color="white"/>
<stop offset="1" stop-color="#E4E8F1"/>
</radialGradient>
<clipPath id="clip0_206_80">
<rect width="269" height="269" fill="white"/>
</clipPath>
</defs>
</svg>
