<svg width="314" height="314" viewBox="0 0 314 314" fill="none" xmlns="http://www.w3.org/2000/svg">
<g opacity="0.5">
<path d="M227.066 46.9176C227.817 47.1552 228.451 47.6632 228.846 48.3401L228.923 48.4779L228.923 48.4791L244.968 79.4059C245.338 80.1117 245.428 80.9317 245.22 81.7011C245.012 82.4705 244.52 83.1329 243.844 83.5552L243.842 83.5564C238.477 86.8868 234.568 92.1199 232.895 98.2084C231.223 104.296 231.909 110.792 234.818 116.395C237.739 121.993 242.666 126.282 248.612 128.405C254.559 130.527 261.087 130.326 266.892 127.843L266.897 127.842C267.631 127.531 268.455 127.51 269.205 127.782C269.953 128.053 270.57 128.597 270.935 129.304L286.99 160.209L286.991 160.209C287.378 160.955 287.453 161.825 287.2 162.626C286.946 163.428 286.385 164.096 285.639 164.484L285.638 164.483L236.378 190.075L236.378 190.074C234.423 191.09 232.259 191.637 230.056 191.67C228.161 191.702 226.299 192.176 224.618 193.053C222.937 193.93 221.483 195.187 220.372 196.723L220.371 196.725C219.076 198.508 217.385 199.967 215.43 200.985L215.429 200.986L89.0933 266.614L89.093 266.615C88.3469 267.002 87.477 267.077 86.6754 266.823C85.874 266.57 85.2059 266.009 84.8182 265.263L84.8185 265.262L68.7621 234.357L68.7624 234.356C68.394 233.652 68.3046 232.834 68.5123 232.067C68.7207 231.297 69.2122 230.635 69.8882 230.213L69.891 230.211C75.2595 226.882 79.1728 221.649 80.8476 215.559C82.5223 209.468 81.8349 202.97 78.923 197.365C76.0111 191.76 71.0896 187.462 65.1436 185.33C59.1976 183.199 52.6658 183.392 46.8562 185.871L46.8528 185.872C46.1186 186.183 45.294 186.204 44.5447 185.932C43.7969 185.661 43.1793 185.117 42.8147 184.41L42.8144 184.411L26.7593 153.505L26.7584 153.505C26.3712 152.759 26.2962 151.89 26.5495 151.088C26.803 150.287 27.3642 149.618 28.1101 149.23L28.111 149.231L154.434 83.621L154.435 83.6213C156.27 82.6704 158.288 82.1314 160.349 82.0398L161.116 82.0159C162.889 81.9345 164.624 81.4673 166.2 80.6452C167.881 79.7683 169.335 78.5115 170.446 76.9751L170.446 76.9742C171.74 75.1906 173.432 73.7334 175.388 72.7182L224.648 47.1271L224.648 47.1262C225.394 46.7388 226.264 46.6641 227.066 46.9176Z" stroke="#224E9F" stroke-width="2" stroke-miterlimit="10"/>
<path d="M173.394 94.4616L167.387 82.8993M189.409 125.29L185.402 117.584M205.423 156.123L201.423 148.414M223.445 190.804L217.438 179.242" stroke="#224E9F" stroke-width="2" stroke-miterlimit="10" stroke-linecap="round"/>
</g>
</svg>
