<svg width="326" height="289" viewBox="0 0 326 289" fill="none" xmlns="http://www.w3.org/2000/svg">
<path opacity="0.5" d="M117.071 7.06956C143.835 -6.7286 176.813 3.7995 190.6 30.5406C195.281 39.6204 196.947 49.4239 196.334 58.9765L196.245 60.3717L197.594 60.0056C209.511 56.7695 222.531 62.1422 228.413 73.5504L244.186 104.146L245.141 102.841L280.876 53.9783L323.945 137.517L263.414 138.285L261.797 138.306L279.328 172.309C286.094 185.434 280.914 201.618 267.777 208.391L119.521 284.825C106.384 291.598 90.1964 286.43 83.4298 273.305L32.5161 174.55C30.6143 170.822 29.6134 166.699 29.5942 162.512C29.5751 158.326 30.5378 154.193 32.4054 150.445L32.858 149.537L31.9437 149.098C21.6249 144.141 12.6888 136.091 7.05655 125.167C-6.7299 98.4258 3.8227 65.4551 30.5868 51.6565C48.9816 42.173 70.1571 44.3979 86.2003 55.2758L87.719 56.3057L87.761 54.4712C88.2056 35.093 98.6757 16.5531 117.071 7.06956ZM106.82 262.372L256.879 185.008L256.42 184.118L205.48 85.3733L205.022 84.4845L54.9877 161.835L106.82 262.372ZM42.3989 74.5682C28.2817 81.8466 22.7148 99.2366 29.9882 113.344C37.2615 127.452 54.6558 133.003 68.7732 125.725C82.8906 118.447 88.4586 101.057 81.1852 86.9496C73.9119 72.8416 56.5164 67.2899 42.3989 74.5682ZM128.883 29.9812C114.765 37.2595 109.198 54.6499 116.471 68.7579C123.744 82.8657 141.139 88.4167 155.257 81.1384C169.374 73.86 174.941 56.4708 167.668 42.363C160.395 28.2552 143 22.7032 128.883 29.9812Z" stroke="#224E9F" stroke-width="2"/>
</svg>
