<svg width="297" height="256" viewBox="0 0 297 256" fill="none" xmlns="http://www.w3.org/2000/svg">
<path opacity="0.5" d="M251.632 170.152L268.26 208.096L268.659 209.009L267.748 209.413L164.925 254.861L136.125 243.717L147.269 214.916L147.65 214.748L250.314 169.639L251.231 169.236L251.632 170.152ZM90.9834 9.65324L95.2004 54.1753L130.419 67.8035L126.202 23.2814L153.157 33.7117L157.374 78.2338L192.594 91.8624L188.377 47.3403L215.331 57.7706L219.548 102.293L254.767 115.921L250.55 71.3988L295.072 88.6266L281.651 123.308L258.18 133.682L63.7106 58.431L21.1266 168.479L118.69 206.232L113.156 220.533L1.29314 177.247L69.3794 1.29342L90.9834 9.65324ZM158.044 225.349L153.983 235.844L164.476 239.905L223.016 213.959L219.854 206.703L219.848 206.689L219.843 206.675L216.917 199.378L158.044 225.349Z" stroke="#224E9F" stroke-width="2"/>
</svg>
