<svg width="450" height="154" viewBox="0 0 450 154" fill="none" xmlns="http://www.w3.org/2000/svg">
<g filter="url(#filter0_n_338_104)">
<path d="M0 10.4688V0.78125H46.3281V10.4688H28.9844V57.3438H17.3438V10.4688H0ZM56.0938 57.3438H43.4375L63.0469 0.78125H78.125L97.6562 57.3438H85.0781L80.8594 44.2969H60.3906L56.0938 57.3438ZM63.3594 35.1562H77.8906L70.7812 13.5156H70.3906L63.3594 35.1562ZM104.062 57.3438V0.78125H115.781V25.8594H116.562L137.109 0.78125H151.25L130.156 26.0938L151.484 57.3438H137.422L121.719 33.9844L115.781 41.1719V57.3438H104.062ZM157.109 57.3438V0.78125H195.078V10.4688H168.828V24.2188H193.125V33.9062H168.828V47.6562H195.156V57.3438H157.109ZM222.656 57.3438V0.78125H234.375V24.2188H258.906V0.78125H270.703V57.3438H258.906V33.9062H234.375V57.3438H222.656ZM332.031 29.0625C332.031 47.5 320.547 58.125 305.625 58.125C290.547 58.125 279.141 47.4219 279.141 29.0625C279.141 10.625 290.547 0 305.625 0C320.547 0 332.031 10.625 332.031 29.0625ZM320.078 29.0625C320.078 16.9531 314.375 10.3906 305.625 10.3906C296.875 10.3906 291.094 16.9531 291.094 29.0625C291.094 41.1719 296.875 47.7344 305.625 47.7344C314.375 47.7344 320.078 41.1719 320.078 29.0625ZM340.469 0.78125H355L370.703 39.1406H371.328L387.031 0.78125H401.562V57.3438H390.156V20.3125H389.688L374.922 57.1094H367.109L352.344 20.1562H351.875V57.3438H340.469V0.78125ZM411.094 57.3438V0.78125H449.062V10.4688H422.812V24.2188H447.109V33.9062H422.812V47.6562H449.141V57.3438H411.094ZM11.1328 105.469V95.7812H57.4609V105.469H40.1172V152.344H28.4766V105.469H11.1328ZM64.7266 152.344V95.7812H76.4453V119.219H100.977V95.7812H112.773V152.344H100.977V128.906H76.4453V152.344H64.7266ZM122.305 152.344V95.7812H160.273V105.469H134.023V119.219H158.32V128.906H134.023V142.656H160.352V152.344H122.305ZM218.555 111.953C218.086 107.5 214.492 104.844 208.789 104.844C202.852 104.844 199.57 107.578 199.492 111.328C199.414 115.391 203.711 117.266 208.555 118.359L213.633 119.609C223.32 121.797 230.586 126.719 230.586 136.172C230.586 146.562 222.461 153.125 208.711 153.125C195.039 153.125 186.289 146.797 185.977 134.688H197.383C197.773 140.391 202.305 143.281 208.555 143.281C214.727 143.281 218.711 140.391 218.711 136.172C218.711 132.344 215.195 130.547 209.023 128.984L202.852 127.5C193.32 125.156 187.461 120.391 187.461 112.109C187.461 101.797 196.523 95 208.867 95C221.367 95 229.648 101.953 229.805 111.953H218.555ZM276.055 115.469C275.117 109.219 270.273 105.391 263.711 105.391C254.883 105.391 249.102 112.188 249.102 124.062C249.102 136.25 254.961 142.734 263.633 142.734C270.117 142.734 274.883 139.141 276.055 133.047L287.93 133.125C286.602 143.594 277.852 153.125 263.477 153.125C248.32 153.125 237.148 142.5 237.148 124.062C237.148 105.625 248.555 95 263.477 95C276.523 95 286.367 102.5 287.93 115.469H276.055ZM296.133 152.344V95.7812H334.102V105.469H307.852V119.219H332.148V128.906H307.852V142.656H334.18V152.344H296.133ZM390.43 95.7812V152.344H380.273L355.43 116.406H354.961V152.344H343.242V95.7812H353.555L378.242 131.719H378.789V95.7812H390.43ZM399.961 152.344V95.7812H437.93V105.469H411.68V119.219H435.977V128.906H411.68V142.656H438.008V152.344H399.961Z" fill="#FAFAFA"/>
</g>
<defs>
<filter id="filter0_n_338_104" x="0" y="0" width="449.141" height="153.125" filterUnits="userSpaceOnUse" color-interpolation-filters="sRGB">
<feFlood flood-opacity="0" result="BackgroundImageFix"/>
<feBlend mode="normal" in="SourceGraphic" in2="BackgroundImageFix" result="shape"/>
<feTurbulence type="fractalNoise" baseFrequency="0.47619050741195679 0.47619050741195679" stitchTiles="stitch" numOctaves="3" result="noise" seed="7505" />
<feColorMatrix in="noise" type="luminanceToAlpha" result="alphaNoise" />
<feComponentTransfer in="alphaNoise" result="coloredNoise1">
<feFuncA type="discrete" tableValues="1 1 1 1 1 1 1 1 1 1 1 1 1 1 1 1 1 1 1 1 1 1 1 1 1 1 1 1 1 1 1 1 1 1 1 1 1 1 1 1 1 1 1 1 1 1 1 1 1 1 1 0 0 0 0 0 0 0 0 0 0 0 0 0 0 0 0 0 0 0 0 0 0 0 0 0 0 0 0 0 0 0 0 0 0 0 0 0 0 0 0 0 0 0 0 0 0 0 0 0 "/>
</feComponentTransfer>
<feComposite operator="in" in2="shape" in="coloredNoise1" result="noise1Clipped" />
<feFlood flood-color="rgba(0, 0, 0, 0.25)" result="color1Flood" />
<feComposite operator="in" in2="noise1Clipped" in="color1Flood" result="color1" />
<feMerge result="effect1_noise_338_104">
<feMergeNode in="shape" />
<feMergeNode in="color1" />
</feMerge>
</filter>
</defs>
</svg>
