<svg width="100" height="61" viewBox="0 0 100 61" fill="none" xmlns="http://www.w3.org/2000/svg">
<g clip-path="url(#clip0_134_252)">
<path d="M21.4306 39.1135C21.6351 39.1135 21.8397 39.0504 22.0443 38.9241C22.397 38.7065 23.0954 38.061 24.1676 36.9663C25.007 36.1102 25.4585 35.7593 25.6772 35.619C25.6772 35.7944 25.6349 36.0962 25.5149 36.6014C25.4585 36.7698 25.3598 37.1698 25.134 38.6925C25.0282 39.7942 24.8377 40.9661 24.5767 42.18C24.2946 43.7168 24.2311 44.7764 24.3792 45.4219C24.5556 46.1868 25.1058 46.6149 25.9382 46.6149C26.3756 46.6149 26.7424 46.3903 26.954 45.9833C27.1304 45.6535 27.2432 45.0921 27.2997 44.2782C27.349 43.3449 27.4337 42.6081 27.5395 42.0748C27.9627 39.303 28.3366 37.2259 28.6541 35.9137C29.0632 34.405 29.0632 33.3314 28.6541 32.6297C28.3578 32.1174 27.871 31.8438 27.2503 31.8438C26.954 31.8438 26.6154 31.9069 26.2345 32.0332C25.5432 32.2929 24.5133 32.9876 23.1024 34.1594C21.6775 35.3453 20.838 36.2155 20.5559 36.8119C20.3866 37.1137 20.3019 37.4435 20.3019 37.8083C20.3019 38.2083 20.4218 38.5311 20.6617 38.7697C20.8945 39.0013 21.1484 39.1135 21.4306 39.1135Z" fill="#224E9F"/>
<path d="M35.3626 47.099C34.9252 47.099 34.3891 47.2113 33.7824 47.4218C33.6272 47.4499 33.4368 47.5131 33.1969 47.5973C32.9853 47.6744 32.7666 47.7516 32.5268 47.8288L32.0612 47.9832L28.7599 48.9024C26.9399 49.4077 25.522 49.8287 24.5767 50.1445C23.9701 50.3059 22.919 50.6357 21.4729 51.1058C19.2226 51.7444 17.0005 52.4952 14.8702 53.3443C11.9639 54.4951 11.3431 54.9442 11.1526 55.1758C10.8846 55.4424 10.7505 55.7933 10.7505 56.2143C10.7505 56.6353 10.8634 56.9722 11.075 57.2107C11.2232 57.4002 11.5053 57.6318 12.0274 57.6318C12.507 57.6318 13.1349 57.4423 13.9531 57.0423C16.8947 55.5407 21.0355 54.0811 26.2697 52.7057L26.3755 52.6777L26.4038 52.6566C26.5942 52.5864 27.3913 52.3338 30.6292 51.4216C31.8637 51.0778 32.8231 50.8111 33.5144 50.6216C34.8265 50.2848 35.6588 50.0112 36.0539 49.7796C36.5406 49.4919 36.7946 49.0428 36.7946 48.4744C36.7946 47.5902 36.2726 47.078 35.3555 47.078L35.3626 47.099Z" fill="#224E9F"/>
<path d="M83.8671 36.4611C83.6625 36.3137 83.4227 36.2435 83.1617 36.2435C82.9148 36.2435 82.6397 36.3137 82.3716 36.44C81.9342 36.6225 81.638 36.9593 81.4828 37.4435C81.3487 37.8575 81.257 38.5662 81.2006 39.6398C81.1653 40.8889 81.1019 41.1345 81.1019 41.1485C81.1019 41.1485 81.0101 41.2608 80.5728 41.3801C80.1919 41.4362 79.7827 41.5555 79.3806 41.7169C79.303 41.745 78.9221 41.8783 78.2449 42.1239C77.8569 42.2713 77.5254 42.4046 77.2079 42.5449C77.215 42.4818 77.2291 42.4046 77.2503 42.3063C77.7864 40.117 77.5959 38.7978 76.6789 38.2645C76.4108 38.1101 76.0793 38.0259 75.6984 38.0259C74.8518 38.0259 73.7302 38.4188 72.2771 39.2188C71.5223 39.6398 71.2048 39.7732 71.0708 39.8153L71.0567 39.7732L71.0214 39.731C70.7463 39.3662 70.4289 39.289 70.2102 39.289C70.0056 39.289 69.787 39.3521 69.5683 39.4854C69.0886 39.7732 68.7994 40.2363 68.6936 40.8748C68.6371 41.3099 68.6653 42.1239 68.7711 43.3659C68.884 44.6009 69.0039 45.4851 69.145 46.0675C69.4131 47.1833 69.2649 47.4008 69.2508 47.4218C68.5031 48.4604 69.0886 49.0849 69.3708 49.3094C69.66 49.534 70.0056 49.6533 70.4007 49.6533C70.7463 49.6533 71.1272 49.5621 71.5576 49.3796C71.9385 49.2042 72.7074 48.9656 73.8431 48.6639C75.0212 48.3551 75.8465 48.1516 76.3332 48.0534C77.3772 47.9692 77.6947 47.4639 77.7793 47.0569C77.8569 46.664 77.7793 46.0745 76.9258 45.5272C76.8341 45.464 76.7424 45.3728 76.7424 45.1342C76.7424 45.036 76.7424 44.9588 76.7565 44.9027C76.7565 44.9027 76.7565 44.9027 76.7635 44.9097C77.0175 45.1272 77.2926 45.2395 77.5818 45.2395C77.6453 45.2395 77.7088 45.2395 77.7723 45.2255C78.0403 45.1834 78.5623 45.022 79.3877 44.7413C80.5164 44.2782 80.9608 44.208 81.1583 44.208H81.2641L81.2923 45.3728C81.2923 46.6078 81.2641 47.7166 81.2147 48.6779C81.1583 50.0673 81.1936 50.9936 81.3276 51.5128C81.4969 52.1724 81.9413 52.5373 82.5832 52.5373C82.9571 52.5373 83.2181 52.4882 83.4015 52.39C83.6272 52.2637 83.7895 52.004 83.9376 51.5128C84.0505 51.1199 84.1281 50.6287 84.1563 50.0392C84.1845 49.4638 84.1986 48.5726 84.1986 47.3867C84.2269 46.0675 84.2903 44.0185 84.4032 41.0994C84.4314 39.1206 84.4455 38.054 84.4455 37.9066C84.4808 37.2329 84.2974 36.7417 83.8953 36.4611H83.8671ZM72.1007 46.0535C72.1007 46.0535 72.0866 46.0114 72.0796 45.9833C71.6634 44.622 71.6069 43.9483 71.6351 43.6256C71.6634 43.2396 71.8891 42.9238 72.3053 42.6782C72.6439 42.4818 73.1095 42.159 73.6879 41.7099C74.0477 41.4783 74.2734 41.359 74.4004 41.2959C74.4004 41.3099 74.4004 41.3169 74.4004 41.331C74.1605 43.4922 73.9771 44.7904 73.8502 45.2044C73.7585 45.5132 73.5609 45.7026 73.2506 45.7939C72.5381 45.9763 72.2348 46.0395 72.1007 46.0535Z" fill="#224E9F"/>
<path d="M89.2212 29.3948C89.1789 29.1281 89.0166 28.7562 88.4735 28.5106C88.2618 28.4264 88.0573 28.3773 87.8598 28.3773C87.6481 28.3773 87.4506 28.4264 87.2672 28.5177C86.717 28.7703 86.3784 29.5702 86.195 31.0158C85.9481 32.5736 85.814 34.1875 85.7858 35.8155C85.7576 37.4364 85.7435 41.3801 85.7435 47.5341C85.7717 53.8495 85.7999 57.4423 85.8281 58.5159C85.8634 59.9965 86.0186 60.4176 86.2373 60.6C86.5265 60.8667 86.8369 61 87.1543 61C87.3166 61 87.4859 60.9649 87.6411 60.8877C88.0925 60.6842 88.3676 60.2702 88.4735 59.6457C88.5087 59.4141 88.5652 57.8493 88.6004 47.0499C88.6004 41.0011 88.6357 37.0856 88.6992 35.4155C88.7627 33.7524 88.8897 32.2718 89.0731 31.0228C89.2635 29.9562 89.2424 29.5772 89.2142 29.3878L89.2212 29.3948Z" fill="#224E9F"/>
<path d="M52.5818 46.4815C52.0316 46.4815 51.3756 46.7763 50.5714 47.3727C49.8801 47.8499 49.1464 48.313 48.3846 48.7551C47.9049 49.0358 47.6298 49.1621 47.4746 49.2252C47.4746 49.1902 47.4746 49.148 47.4746 49.0919C47.4887 48.7972 47.5451 48.5516 47.6368 48.3832C47.7568 48.1867 47.8132 47.9341 47.8132 47.6183C47.8132 47.1482 48.1095 46.6219 48.6597 46.0956C48.956 45.871 49.224 45.7026 49.4568 45.5974C49.612 45.5202 50.007 45.3798 50.9805 45.1202C52.4619 44.7202 52.7441 43.7519 52.7229 43.0151C52.7229 42.5169 52.8146 41.8432 52.991 41.0292C53.4495 39.2398 53.4283 38.2294 52.9275 37.7662C52.6594 37.4996 52.2079 37.2891 51.559 37.1207C51.1569 37.0154 50.7759 36.9663 50.4303 36.9663C50.2398 36.9663 50.0494 36.9803 49.8589 37.0154C48.6385 37.2891 47.1854 37.9838 45.5417 39.0785C44.667 39.6679 44.0745 40.1731 43.7218 40.6222C43.3267 41.1275 43.1786 41.6678 43.2844 42.2362C43.4325 43.0642 43.9898 43.1554 44.2226 43.1554C44.6952 43.1554 45.2807 42.8326 46.0779 42.1449C46.875 41.4502 47.7779 40.8608 48.7514 40.3766C49.6543 39.9345 50.1058 39.8363 50.3315 39.8363C50.3315 39.9837 50.2751 40.3135 50.0423 40.9941C49.6967 42.0116 49.478 42.1941 49.5062 42.2081C49.3792 42.2081 49.3087 42.2221 47.9895 42.9379C46.6422 43.7027 45.577 44.2641 44.8787 44.5869C44.7799 44.622 44.6952 44.6571 44.6318 44.6851C43.4114 45.2606 42.7906 45.9623 42.7906 46.7692C42.7906 47.2394 43.0022 47.499 43.1786 47.6394C43.4114 47.8218 43.7288 47.913 44.138 47.913C44.2649 47.913 44.4131 47.906 44.5471 47.885C44.5965 47.885 44.6459 47.885 44.6952 47.8779C44.5824 48.2639 44.5189 48.7832 44.5048 49.4638C44.4907 50.2497 44.5401 50.8111 44.66 51.162C44.9986 52.3198 45.7534 52.5654 46.3318 52.5654C46.4165 52.5654 46.5082 52.5654 46.6069 52.5514C47.4323 52.4531 48.7937 51.8496 50.7689 50.7129C51.9328 50.0252 52.6876 49.5059 53.0615 49.134C53.4848 48.713 53.7034 48.2639 53.7034 47.8148C53.7034 46.6359 52.9557 46.4886 52.5889 46.4745L52.5818 46.4815Z" fill="#224E9F"/>
<path d="M58.5567 38.2715L60.0451 46.8955L61.5547 55.4986L58.5567 55.4705L55.5587 55.4986L57.0612 46.8955L58.5567 38.2715Z" fill="#224E9F"/>
<path d="M58.5567 35.626C60.2125 35.626 61.5547 34.3222 61.5547 32.7139C61.5547 31.1056 60.2125 29.8018 58.5567 29.8018C56.9009 29.8018 55.5587 31.1056 55.5587 32.7139C55.5587 34.3222 56.9009 35.626 58.5567 35.626Z" fill="#224E9F"/>
<path d="M98.307 0L0 20.5111L1.31208 24.3986L99.6191 3.8875L98.307 0Z" fill="#E4E8F1"/>
<path d="M42.0288 11.7397L36.5124 12.8905L34.3468 17.5078L39.7362 16.385L42.0288 11.7397Z" fill="#224E9F"/>
<path d="M52.6312 9.53629L47.2842 10.638L45.0339 15.2763L50.3951 14.1606L52.6312 9.53629Z" fill="#224E9F"/>
<path d="M12.6622 22.0338L18.5243 20.8128L20.8169 16.1675L14.9055 17.4095L12.6622 22.0338Z" fill="#224E9F"/>
<path d="M31.1724 14.0062L26.1287 15.0728L23.8854 19.7041L28.9292 18.6375L31.1724 14.0062Z" fill="#224E9F"/>
<path d="M62.9797 7.368L57.943 8.42057L55.7774 13.0378L60.8493 11.9783L62.9797 7.368Z" fill="#224E9F"/>
<path d="M72.6862 5.35408L68.1081 6.29438L65.8648 10.9327L70.704 9.92224L72.6862 5.35408Z" fill="#224E9F"/>
<path d="M82.5057 3.29806L77.469 4.35063L75.5009 8.9258L80.8409 7.81008L82.5057 3.29806Z" fill="#224E9F"/>
<path d="M96.1555 4.61026L99.6191 3.8875L98.307 0L96.1555 4.61026Z" fill="#224E9F"/>
<path d="M9.36089 18.5674L0 20.4971L1.31208 24.3986L7.18115 23.1776L9.36089 18.5674Z" fill="#224E9F"/>
<path d="M92.8047 1.15081L88.0291 2.14724L85.8634 6.75751L90.5615 5.78212L92.8047 1.15081Z" fill="#224E9F"/>
<path d="M100 24.3986H0.0634766V20.462H100" fill="#224E9F"/>
<path d="M5.27651 24.3986H0.211615C0.0634776 24.3986 0.0634776 24.4407 0.077586 24.139V20.462" fill="#224E9F"/>
</g>
<defs>
<clipPath id="clip0_134_252">
<rect width="100" height="61" fill="white"/>
</clipPath>
</defs>
</svg>
